<svg xmlns="http://www.w3.org/2000/svg" width="16" height="16" viewBox="0 0 256 256" preserveAspectRatio="xMinYMid meet">
    <g fill="none" stroke-miterlimit="10" font-family="none" font-weight="none" font-size="none" text-anchor="none" style="mix-blend-mode:normal">
        <path d="M48 252c-11.04-.013-19.987-8.96-20-20V48c.013-11.04 8.96-19.987 20-20h156v204c-.013 11.04-8.96 19.987-20 20z" fill="#00555a"/>
        <path d="M72 228c-11.04-.013-19.987-8.96-20-20V24c.013-11.04 8.96-19.987 20-20h108l48 48v156c-.013 11.04-8.96 19.987-20 20z" fill="#a4dce0"/>
        <path d="M180 52V4l48 48z" fill="#00555a"/>
        <path d="M230.827 49.17 182.829 1.174A4.024 4.024 0 0 0 180 0H72C58.751.014 48.014 10.751 48 24c-13.249.014-23.986 10.751-24 24v184c.014 13.249 10.751 23.986 24 24h136c13.249-.014 23.986-10.751 24-24 13.249-.014 23.986-10.751 24-24V52a4.024 4.024 0 0 0-1.173-2.83zM184 13.657 218.344 48H184zM184 248H48c-8.832-.01-15.99-7.168-16-16V48c.01-8.832 7.168-15.99 16-16v176c.014 13.249 10.751 23.986 24 24h128c-.01 8.832-7.168 15.99-16 16zm24-24H72c-8.832-.01-15.99-7.168-16-16V24c.01-8.832 7.168-15.99 16-16h104v44a4 4 0 0 0 4 4h44v152c-.01 8.832-7.168 15.99-16 16z" fill="#343342"/>
        <path d="M74.564 83.734a3.999 3.999 0 0 0 5.17-2.298L84.902 68h22.196l5.168 13.436a4 4 0 0 0 7.468-2.872l-20-52a4.001 4.001 0 0 0-7.468 0l-20 52a4.002 4.002 0 0 0 2.298 5.17zM96 39.143 104.022 60H87.978zM120 48h4v4a4 4 0 0 0 8 0v-4h4a4 4 0 0 0 0-8h-4v-4a4 4 0 0 0-8 0v4h-4a4 4 0 0 0 0 8zM204 104H76a4 4 0 0 0 0 8h128a4 4 0 0 0 0-8zM204 128H76a4 4 0 0 0 0 8h128a4 4 0 0 0 0-8zM204 152H76a4 4 0 0 0 0 8h128a4 4 0 0 0 0-8zM204 176H76a4 4 0 0 0 0 8h128a4 4 0 0 0 0-8zM148 200H76a4 4 0 0 0 0 8h72a4 4 0 0 0 0-8z" fill="#343342"/>
    </g>
</svg>
